<?xml version="1.0" encoding="utf-8"?>
<svg fill="#E1571F" version="1.1" xmlns="http://www.w3.org/2000/svg" xmlns:xlink="http://www.w3.org/1999/xlink" viewBox="0 0 31.75 28.071">
<path d="M13.165,17.897h-2.44l0.673-1.124l0.154,0.101c0.216,0.142,0.501,0.118,0.694-0.057c0.19-0.175,0.237-0.46,0.113-0.685
	l-2.164-4.008c-0.089-0.166-0.255-0.276-0.445-0.294l-4.648-0.462c-0.261-0.027-0.504,0.128-0.59,0.374
	c-0.086,0.246,0.006,0.519,0.223,0.661l0.231,0.151l-3.19,5.63c-0.05,0.089-0.074,0.187-0.074,0.285c0,0.03,0.019,0.057,0.024,0.086
	c0.011,0.066,0.018,0.133,0.053,0.192c0,0.001,0.001,0.001,0.001,0.001c0.001,0.001,0,0.003,0.001,0.005l3.89,6.522
	c0.104,0.172,0.287,0.276,0.486,0.276h7.009c0.312,0,0.567-0.252,0.567-0.567v-6.522C13.731,18.149,13.476,17.897,13.165,17.897z
	 M12.599,24.419H6.479l-3.217-5.39h6.463h2.873V24.419z M6.21,12.653c0.006-0.012,0.012-0.024,0.018-0.036l3.113,0.312l1.447,2.677
	c-0.021,0.024-0.041,0.05-0.059,0.08l-1.322,2.212H3.239L6.21,12.653z"/>
<path d="M26.369,11.819c-0.077-0.136-0.207-0.234-0.362-0.27c-0.154-0.038-0.314-0.009-0.445,0.08l-5.473,3.661
	c-0.249,0.166-0.326,0.501-0.172,0.759l1.106,1.847h-1.586l0.003-0.234c0.003-0.261-0.169-0.489-0.424-0.557
	c-0.252-0.065-0.516,0.05-0.641,0.279l-2.229,4.109c-0.089,0.163-0.092,0.362-0.006,0.531l2.099,4.041
	c0.098,0.19,0.294,0.305,0.501,0.305c0.045,0,0.086-0.003,0.13-0.015c0.252-0.059,0.43-0.282,0.436-0.54l0.006-0.264h6.279
	c0.199,0,0.383-0.104,0.486-0.276l3.89-6.522c0.001-0.001,0-0.003,0.001-0.004c0-0.001,0.001-0.001,0.002-0.002
	c0.037-0.062,0.046-0.133,0.056-0.202c0.004-0.026,0.021-0.05,0.021-0.076c0.001-0.098-0.024-0.196-0.075-0.285L26.369,11.819z
	 M18.756,24.419c-0.032,0-0.062,0.003-0.092,0.009l-1.379-2.659l1.491-2.745c0.027,0.003,0.056,0.006,0.086,0.006h3.16h6.463
	l-3.217,5.39H18.756z M25.685,12.907l2.825,4.99h-6.166l-1.174-1.966L25.685,12.907z"/>
<path d="M16.675,11.668c-0.223,0.136-0.323,0.406-0.243,0.655c0.071,0.237,0.291,0.394,0.537,0.394c0.015,0,0.026,0,0.039,0
	l4.663-0.305c0.187-0.015,0.359-0.118,0.454-0.281l2.298-3.928c0.131-0.222,0.092-0.507-0.092-0.691
	c-0.184-0.181-0.468-0.214-0.691-0.08l-0.145,0.089l-3.309-5.544c-0.104-0.172-0.288-0.276-0.486-0.276h-0.003L12.1,1.719
	c-0.001,0-0.001,0-0.003,0c-0.1,0-0.196,0.028-0.28,0.077c-0.011,0.006-0.016,0.02-0.026,0.027C11.722,1.869,11.658,1.925,11.614,2
	L8.009,8.176C7.858,8.437,7.938,8.769,8.19,8.935l5.366,3.54c0.095,0.062,0.202,0.095,0.311,0.095c0.041,0,0.08-0.006,0.121-0.015
	c0.148-0.032,0.279-0.121,0.359-0.252l1.585-2.539l1.036,1.727L16.675,11.668z M9.257,8.286l2.852-4.889l3.166,5.28l-1.58,2.535
	L9.257,8.286z M13.102,2.848L13.102,2.848l6.273-0.015l3.439,5.757c0.012,0.018,0.024,0.036,0.039,0.053l-1.557,2.656l-3.015,0.199
	c-0.015-0.039-0.03-0.074-0.053-0.11l-4.624-7.705L13.102,2.848z"/>















</svg>
