<?xml version="1.0" encoding="utf-8"?>
<svg version="1.1" xmlns="http://www.w3.org/2000/svg" xmlns:xlink="http://www.w3.org/1999/xlink" viewBox="0 0 37.028 37.028">
<g>
	<path d="M34.471,18.25c-0.316,0-0.572-0.256-0.572-0.573v-1.394c0-0.341-0.277-0.618-0.618-0.618h-2.991
		c-0.255,0-0.479-0.169-0.55-0.413c-0.243-0.84-0.572-1.637-0.977-2.372c-0.123-0.223-0.084-0.501,0.096-0.681l2.111-2.111
		c0.241-0.241,0.241-0.634,0-0.875l-3.154-3.155c-0.234-0.233-0.641-0.233-0.875,0l-2.112,2.111c-0.18,0.18-0.458,0.22-0.681,0.097
		c-0.734-0.405-1.532-0.734-2.372-0.978c-0.245-0.07-0.413-0.294-0.413-0.549V3.747c0-0.341-0.277-0.618-0.618-0.618h-4.461
		c-0.342,0-0.619,0.277-0.619,0.618v2.991c0,0.255-0.168,0.479-0.413,0.549c-0.839,0.244-1.637,0.572-2.372,0.978
		c-0.223,0.123-0.501,0.083-0.681-0.097l-2.111-2.111c-0.205-0.205-0.53-0.239-0.773-0.082c-0.266,0.171-0.62,0.096-0.792-0.17
		C8.35,5.54,8.426,5.186,8.692,5.014c0.693-0.448,1.62-0.35,2.205,0.234L12.71,7.06c0.575-0.29,1.181-0.54,1.81-0.744V3.747
		c0-0.972,0.791-1.764,1.764-1.764h4.461c0.972,0,1.764,0.791,1.764,1.764v2.568c0.628,0.205,1.234,0.454,1.81,0.744l1.812-1.812
		c0.666-0.666,1.828-0.666,2.494,0l3.155,3.155c0.688,0.688,0.688,1.807,0.001,2.495l-1.813,1.813c0.29,0.574,0.54,1.18,0.744,1.809
		h2.569c0.972,0,1.764,0.791,1.764,1.764v1.394C35.045,17.994,34.788,18.25,34.471,18.25z"/>
	<path d="M20.745,35.044h-4.461c-0.973,0-1.764-0.791-1.764-1.764v-2.568c-0.629-0.205-1.235-0.454-1.81-0.745l-1.813,1.813
		c-0.666,0.667-1.828,0.667-2.494,0l-3.155-3.155c-0.688-0.688-0.688-1.807,0-2.495l1.813-1.812c-0.291-0.576-0.54-1.182-0.745-1.81
		H3.747c-0.972,0-1.764-0.791-1.764-1.764v-4.461c0-0.972,0.791-1.764,1.764-1.764h2.569c0.205-0.629,0.454-1.235,0.745-1.809
		l-1.813-1.813c-0.688-0.688-0.688-1.807,0-2.495l1.465-1.465c0.224-0.224,0.586-0.224,0.809,0c0.224,0.224,0.224,0.586,0,0.81
		L6.058,9.212c-0.241,0.241-0.241,0.634,0,0.875l2.111,2.111c0.18,0.18,0.22,0.458,0.096,0.681
		c-0.405,0.734-0.733,1.532-0.976,2.372c-0.071,0.245-0.296,0.413-0.55,0.413H3.747c-0.341,0-0.618,0.277-0.618,0.618v4.461
		c0,0.341,0.277,0.618,0.618,0.618h2.992c0.254,0,0.479,0.169,0.55,0.414c0.243,0.838,0.572,1.636,0.976,2.371
		c0.123,0.224,0.084,0.502-0.096,0.682L6.058,26.94c-0.241,0.241-0.241,0.634,0,0.875l3.155,3.155c0.233,0.233,0.641,0.233,0.875,0
		l2.111-2.111c0.18-0.18,0.458-0.22,0.681-0.096c0.734,0.405,1.533,0.733,2.372,0.977c0.245,0.071,0.412,0.295,0.412,0.549v2.991
		c0,0.341,0.277,0.618,0.619,0.618h4.461c0.341,0,0.618-0.277,0.618-0.618v-2.991c0-0.254,0.169-0.479,0.413-0.549
		c0.839-0.244,1.637-0.572,2.372-0.977c0.223-0.123,0.501-0.083,0.681,0.096l2.111,2.111c0.235,0.234,0.641,0.233,0.875,0
		l3.154-3.155c0.241-0.241,0.241-0.634,0-0.875l-2.111-2.111c-0.18-0.18-0.22-0.458-0.096-0.682
		c0.405-0.735,0.734-1.533,0.977-2.371c0.071-0.245,0.295-0.414,0.55-0.414h2.991c0.274,0,0.519-0.184,0.595-0.447
		c0.087-0.305,0.403-0.48,0.708-0.392c0.304,0.087,0.479,0.405,0.392,0.708c-0.216,0.751-0.913,1.276-1.695,1.276h-2.568
		c-0.205,0.628-0.454,1.234-0.745,1.81l1.812,1.812c0.688,0.688,0.688,1.807,0.001,2.495l-3.155,3.155
		c-0.666,0.667-1.828,0.667-2.494,0l-1.813-1.813c-0.575,0.291-1.181,0.54-1.809,0.745v2.568
		C22.509,34.253,21.717,35.044,20.745,35.044z"/>
	<path d="M18.514,31.355c-7.081,0-12.841-5.761-12.841-12.841s5.76-12.841,12.841-12.841c7.08,0,12.841,5.76,12.841,12.841
		S25.595,31.355,18.514,31.355z M18.514,6.818c-6.449,0-11.696,5.247-11.696,11.696c0,6.449,5.247,11.696,11.696,11.696
		c6.449,0,11.696-5.246,11.696-11.696C30.21,12.065,24.963,6.818,18.514,6.818z"/>
	<path d="M18.514,28.321c-2.165,0-4.218-0.692-5.937-2.001c-0.251-0.191-0.3-0.551-0.108-0.803c0.191-0.252,0.55-0.301,0.803-0.108
		c1.517,1.155,3.33,1.766,5.243,1.766c4.776,0,8.661-3.885,8.661-8.662c0-1.014-0.174-2.008-0.516-2.953
		c-0.108-0.297,0.046-0.626,0.343-0.734c0.297-0.109,0.626,0.046,0.734,0.344c0.388,1.07,0.585,2.195,0.585,3.343
		C28.321,23.921,23.922,28.321,18.514,28.321z"/>
	<path d="M9.711,21.883c-0.243,0-0.469-0.155-0.546-0.399c-0.304-0.957-0.458-1.956-0.458-2.97c0-5.408,4.4-9.807,9.807-9.807
		c0.549,0,1.1,0.047,1.639,0.137c0.312,0.052,0.523,0.348,0.469,0.66c-0.052,0.311-0.345,0.523-0.66,0.469
		C19.487,9.893,19,9.852,18.514,9.852c-4.776,0-8.662,3.886-8.662,8.662c0,0.896,0.136,1.778,0.404,2.623
		c0.096,0.301-0.071,0.623-0.372,0.719C9.826,21.874,9.768,21.883,9.711,21.883z"/>
	<path d="M21.705,24.724c-0.266,0-0.531-0.084-0.763-0.252l-2.339-1.7c-0.053-0.039-0.125-0.039-0.178,0l-2.34,1.7
		c-0.463,0.337-1.062,0.336-1.524,0c-0.464-0.336-0.648-0.906-0.471-1.45l0.893-2.749c0.02-0.063-0.002-0.131-0.055-0.17l-2.339-1.7
		c-0.464-0.336-0.648-0.906-0.471-1.45c0.177-0.544,0.661-0.896,1.233-0.896h2.892c0.066,0,0.124-0.042,0.144-0.105l0.893-2.75
		c0.177-0.544,0.662-0.896,1.234-0.896s1.056,0.351,1.233,0.896l0.894,2.749c0.02,0.064,0.078,0.106,0.144,0.106h2.891
		c0.572,0,1.057,0.352,1.234,0.896c0.176,0.544-0.009,1.113-0.472,1.45l-2.338,1.7c-0.054,0.039-0.076,0.107-0.056,0.17l0.894,2.75
		c0.177,0.544-0.008,1.113-0.471,1.45C22.235,24.639,21.97,24.724,21.705,24.724z M18.514,21.598c0.267,0,0.534,0.082,0.762,0.248
		l2.34,1.7c0.059,0.044,0.119,0.043,0.178,0c0.059-0.043,0.077-0.1,0.055-0.169l-0.894-2.751c-0.174-0.536,0.016-1.119,0.471-1.45
		l2.339-1.7c0.059-0.043,0.078-0.1,0.055-0.169c-0.022-0.07-0.071-0.106-0.144-0.106h-2.891c-0.565,0-1.06-0.36-1.234-0.896
		l-0.893-2.749c-0.023-0.07-0.071-0.104-0.144-0.104s-0.122,0.035-0.145,0.104l-0.893,2.75c-0.174,0.536-0.669,0.896-1.233,0.896
		h-2.892c-0.073,0-0.121,0.035-0.144,0.106c-0.022,0.069-0.004,0.126,0.055,0.169l2.34,1.7c0.456,0.331,0.645,0.914,0.471,1.45
		l-0.893,2.75c-0.023,0.07-0.005,0.127,0.055,0.17c0.058,0.043,0.119,0.043,0.178,0l2.339-1.7
		C17.98,21.679,18.247,21.598,18.514,21.598z"/>
</g>















</svg>
