<?xml version="1.0" encoding="utf-8"?>
<svg fill="#008BBC" version="1.1" xmlns="http://www.w3.org/2000/svg" xmlns:xlink="http://www.w3.org/1999/xlink" viewBox="0 0 34.045 30.591">
<path d="M5.731,19.893c1.011,1.135,2.248,2.28,3.774,3.499c1.34,1.064,2.722,2.043,4.062,2.988c1.109,0.786,2.158,1.527,3.11,2.268
	c0.101,0.08,0.222,0.119,0.347,0.119c0.124,0,0.249-0.042,0.353-0.124c1.02-0.812,2.173-1.625,3.394-2.485
	c2.553-1.803,5.446-3.842,7.646-6.336c2.559-2.903,3.804-5.986,3.804-9.431c0-4.723-3.842-8.568-8.568-8.568
	c-2.585,0-5.01,1.162-6.629,3.142c-1.622-1.98-4.047-3.142-6.632-3.142c-4.723,0-8.568,3.845-8.568,8.568
	C1.824,13.828,3.102,16.938,5.731,19.893z M10.392,2.956c2.472,0,4.776,1.224,6.164,3.273c0.104,0.154,0.279,0.249,0.468,0.249
	c0.187,0,0.362-0.095,0.468-0.249c1.387-2.049,3.691-3.273,6.16-3.273c4.1,0,7.436,3.338,7.436,7.435
	c0,7.107-5.829,11.216-10.972,14.841c-1.097,0.774-2.143,1.509-3.098,2.25c-0.872-0.664-1.811-1.328-2.799-2.028
	C8.942,21.72,2.957,17.483,2.957,10.392C2.957,6.294,6.292,2.956,10.392,2.956z"/>
<path d="M11.178,17.987h3.095v3.098c0,0.311,0.255,0.566,0.566,0.566h4.367c0.314,0,0.566-0.255,0.566-0.566v-3.098h3.098
	c0.311,0,0.563-0.252,0.563-0.563v-4.367c0-0.315-0.252-0.566-0.563-0.566h-3.098V9.396c0-0.314-0.252-0.569-0.566-0.569h-4.367
	c-0.311,0-0.566,0.255-0.566,0.569v3.095h-3.095c-0.312,0-0.567,0.252-0.567,0.566v4.367C10.611,17.735,10.866,17.987,11.178,17.987
	z M11.744,13.623h3.095c0.314,0,0.567-0.255,0.567-0.566V9.959h3.234v3.098c0,0.311,0.255,0.566,0.566,0.566h3.095v3.231h-3.095
	c-0.311,0-0.566,0.255-0.566,0.569v3.095h-3.234v-3.095c0-0.314-0.252-0.569-0.567-0.569h-3.095V13.623z"/>
<path d="M24.498,6.039c0.009,0,0.797,0.169,1.61,0.747c1.097,0.78,1.719,1.903,1.844,3.344c0.027,0.294,0.273,0.516,0.563,0.516
	c0.018,0,0.033,0,0.05,0c0.311-0.029,0.542-0.302,0.513-0.614c-0.193-2.227-1.364-3.495-2.315-4.172
	c-1.02-0.723-2.001-0.925-2.043-0.934c-0.308-0.062-0.605,0.139-0.667,0.445C23.994,5.678,24.193,5.977,24.498,6.039z"/>















</svg>
