<?xml version="1.0" encoding="utf-8"?>
<svg version="1.1" xmlns="http://www.w3.org/2000/svg" xmlns:xlink="http://www.w3.org/1999/xlink" viewBox="0 0 37.645 42.744">
<path d="M33.071,16.838h0.065c0.311,0,0.566-0.255,0.566-0.566v-2.393c0-6.389-5.2-11.589-11.592-11.589
	c-5.873,0-10.728,4.394-11.479,10.063c-0.066,0.092-0.112,0.2-0.112,0.322v1.204v2.393c0,0.311,0.252,0.566,0.566,0.566h10.459
	V27.25c0,1.429,1.162,2.594,2.591,2.594s2.594-1.165,2.594-2.594v-1.328c0-0.311-0.255-0.566-0.566-0.566
	c-0.314,0-0.569,0.255-0.569,0.566v1.328c0,0.803-0.652,1.461-1.459,1.461c-0.803,0-1.459-0.658-1.459-1.461V16.838H33.071z
	 M22.111,3.422c5.162,0,9.453,3.762,10.298,8.687H11.813C12.658,7.185,16.949,3.422,22.111,3.422z M11.651,13.879v-0.638h0.032
	h20.818v2.464H22.111H11.651V13.879z"/>
<path d="M2.303,32.512l1.642,7.498c0.057,0.258,0.285,0.445,0.552,0.445h4.485c0.175,0,0.341-0.08,0.448-0.216
	c0.107-0.139,0.145-0.317,0.101-0.486l-0.25-1.002h4.155c8.562,0,13.157-2.07,15.505-3.807c0.03-0.024,5.411-4.005,5.411-4.005
	c0.578-0.427,0.943-1.085,0.996-1.805c0.053-0.717-0.208-1.423-0.715-1.933c-0.794-0.797-2.028-0.961-3-0.397l-6.169,3.575
	l-3.872,0.756l-4.198-0.365l1.841-0.516c0.652-0.181,1.204-0.628,1.518-1.227c0.312-0.599,0.365-1.31,0.139-1.951
	c-0.409-1.171-1.631-1.856-2.843-1.589l-5.33,1.159c-1.663,0.362-3.181,1.189-4.388,2.39l-1.298,1.293
	c-0.026-0.019-0.045-0.046-0.075-0.06c-0.148-0.074-0.32-0.08-0.471-0.015l-3.851,1.616C2.384,31.975,2.244,32.245,2.303,32.512z
	 M5.709,31.806l0.605-0.255l0.072,0.288l0.178,0.713l1.268,5.065l0.142,0.566l0.142,0.567l0.143,0.572H4.954L4.828,38.75
	l-0.124-0.567l-0.207-0.945l-0.396-1.806L3.51,32.731L5.709,31.806z M19.825,27.448c0.121,0.35,0.095,0.723-0.077,1.052
	c-0.172,0.329-0.462,0.563-0.818,0.664l-4.844,1.349c-0.264,0.074-0.436,0.326-0.409,0.599c0.024,0.273,0.24,0.489,0.513,0.51
	l7.385,0.646c0.053,0.006,0.104,0,0.157-0.009l4.044-0.789c0.063-0.012,0.122-0.036,0.175-0.068l6.25-3.62
	c0.531-0.308,1.201-0.219,1.631,0.214c0.276,0.279,0.418,0.661,0.388,1.052c-0.03,0.389-0.228,0.747-0.542,0.978
	c-5.339,3.955-5.408,4.003-5.408,4.003c-1.758,1.301-4.127,2.265-7.044,2.867c-2.324,0.477-4.945,0.72-7.788,0.72H8.998l-1.53-6.125
	l1.662-1.654c1.053-1.049,2.375-1.77,3.828-2.087l5.333-1.159C18.944,26.449,19.605,26.817,19.825,27.448z"/>















</svg>
