<?xml version="1.0" encoding="utf-8"?>
<svg fill="#008BBC" version="1.1" xmlns="http://www.w3.org/2000/svg" xmlns:xlink="http://www.w3.org/1999/xlink" viewBox="0 0 36.27 37.677">
<g>
	<path d="M21.207,35.389H4.831c-1.551,0-2.813-1.261-2.813-2.813V4.831c0-1.551,1.262-2.813,2.813-2.813h25.957
		c1.551,0,2.813,1.262,2.813,2.813v9.341c0,0.277-0.225,0.501-0.502,0.501c-0.277,0-0.501-0.224-0.501-0.501V4.831
		c0-0.998-0.812-1.809-1.809-1.809H4.831c-0.998,0-1.809,0.812-1.809,1.809v27.745c0,0.998,0.812,1.809,1.809,1.809h16.376
		c0.277,0,0.501,0.225,0.501,0.502C21.708,35.165,21.484,35.389,21.207,35.389z"/>
	<path d="M21.857,32.118H9.754c-0.146,0-0.284-0.063-0.38-0.174c-0.095-0.111-0.138-0.257-0.117-0.401
		c0.026-0.176,0.038-0.321,0.038-0.459c0-1.728-1.406-3.133-3.133-3.133c-0.143,0-0.298,0.014-0.475,0.041
		c-0.144,0.023-0.291-0.019-0.403-0.115c-0.111-0.095-0.176-0.234-0.176-0.381V9.911c0-0.146,0.064-0.286,0.175-0.381
		c0.111-0.095,0.257-0.138,0.403-0.115c0.18,0.027,0.331,0.04,0.475,0.04c1.728,0,3.133-1.406,3.133-3.133
		c0-0.138-0.012-0.284-0.038-0.458C9.236,5.72,9.279,5.573,9.374,5.463C9.47,5.353,9.608,5.29,9.754,5.29h16.111
		c0.146,0,0.284,0.063,0.38,0.174c0.095,0.11,0.138,0.257,0.117,0.401c-0.025,0.176-0.038,0.321-0.038,0.458
		c0,1.728,1.406,3.133,3.133,3.133c0.144,0,0.295-0.013,0.476-0.04c0.144-0.022,0.291,0.019,0.402,0.115
		c0.111,0.095,0.175,0.234,0.175,0.381v3.068c0,0.277-0.224,0.502-0.501,0.502c-0.277,0-0.502-0.225-0.502-0.502v-2.521
		c-2.285,0.034-4.187-1.838-4.187-4.136c0-0.01,0-0.019,0.001-0.029H10.299c0,0.01,0,0.019,0,0.029c0,2.298-1.897,4.171-4.186,4.136
		v16.491c0.017-0.001,0.034-0.001,0.05-0.001c2.281,0,4.137,1.856,4.137,4.137c0,0.01,0,0.02,0,0.03h11.559
		c0.277,0,0.502,0.224,0.502,0.501C22.36,31.893,22.135,32.118,21.857,32.118z"/>
	<path d="M23.34,11.231H12.28c-0.277,0-0.502-0.224-0.502-0.501s0.225-0.501,0.502-0.501h11.06c0.277,0,0.501,0.224,0.501,0.501
		S23.617,11.231,23.34,11.231z"/>
	<path d="M22.131,15.892H8.99c-0.277,0-0.501-0.224-0.501-0.501s0.224-0.502,0.501-0.502h13.141c0.277,0,0.501,0.225,0.501,0.502
		S22.407,15.892,22.131,15.892z"/>
	<path d="M20.98,18.82H8.99c-0.277,0-0.501-0.224-0.501-0.501s0.224-0.501,0.501-0.501h11.99c0.277,0,0.501,0.224,0.501,0.501
		S21.258,18.82,20.98,18.82z"/>
	<path d="M20.98,21.747H8.99c-0.277,0-0.501-0.224-0.501-0.501c0-0.277,0.224-0.502,0.501-0.502h11.99
		c0.277,0,0.501,0.225,0.501,0.502C21.482,21.523,21.258,21.747,20.98,21.747z"/>
	<path d="M22.183,24.675H8.99c-0.277,0-0.501-0.224-0.501-0.501c0-0.277,0.224-0.501,0.501-0.501h13.192
		c0.277,0,0.502,0.224,0.502,0.501C22.685,24.451,22.46,24.675,22.183,24.675z"/>
	<path d="M28.544,25.966c-0.473,0-0.946-0.146-1.349-0.44c-0.222-0.162-0.485-0.247-0.759-0.247c-0.998,0-1.875-0.637-2.182-1.586
		c-0.085-0.261-0.247-0.485-0.47-0.646c-0.806-0.586-1.142-1.617-0.834-2.565c0.085-0.262,0.085-0.538,0-0.798
		c-0.308-0.949,0.027-1.98,0.834-2.566c0.222-0.161,0.385-0.385,0.47-0.646c0.308-0.948,1.185-1.586,2.182-1.586
		c0.275,0,0.537-0.086,0.76-0.247c0.806-0.586,1.891-0.586,2.698,0.001c0.222,0.161,0.485,0.247,0.759,0.247
		c0.997,0,1.875,0.637,2.182,1.586c0.085,0.261,0.247,0.485,0.47,0.646c0.806,0.586,1.142,1.617,0.834,2.566
		c-0.085,0.261-0.085,0.537,0,0.798c0.308,0.949-0.027,1.98-0.834,2.566c-0.222,0.162-0.385,0.385-0.47,0.646
		c-0.308,0.948-1.185,1.586-2.182,1.586c-0.275,0-0.537,0.085-0.759,0.247C29.49,25.819,29.017,25.966,28.544,25.966z
		 M28.544,15.204c-0.266,0-0.533,0.082-0.759,0.247c-0.395,0.287-0.862,0.438-1.349,0.438c-0.562,0-1.055,0.359-1.228,0.893
		c-0.151,0.464-0.439,0.86-0.834,1.148c-0.455,0.33-0.643,0.911-0.47,1.445c0.151,0.463,0.151,0.954,0,1.418
		c-0.174,0.534,0.015,1.114,0.47,1.445c0.394,0.287,0.683,0.684,0.834,1.148c0.173,0.533,0.667,0.892,1.228,0.892
		c0.488,0,0.955,0.152,1.349,0.439c0.454,0.33,1.065,0.329,1.518,0c0.394-0.288,0.861-0.439,1.349-0.439
		c0.561,0,1.055-0.359,1.228-0.892c0.151-0.464,0.439-0.861,0.834-1.148c0.454-0.33,0.643-0.911,0.47-1.445
		c-0.151-0.464-0.151-0.954,0-1.418c0.174-0.534-0.015-1.115-0.47-1.445c-0.394-0.288-0.683-0.684-0.834-1.147
		c-0.174-0.534-0.667-0.893-1.228-0.893c-0.488,0-0.954-0.151-1.349-0.438C29.076,15.286,28.81,15.204,28.544,15.204z"/>
	<path d="M23.34,35.659c-0.12,0-0.238-0.043-0.332-0.126c-0.137-0.12-0.198-0.308-0.157-0.486l2.369-10.535
		c0.061-0.27,0.33-0.439,0.599-0.38c0.27,0.061,0.44,0.33,0.38,0.6l-2.169,9.643l4.344-1.569c0.11-0.04,0.231-0.04,0.341,0
		l4.345,1.569l-2.166-9.643c-0.06-0.269,0.109-0.538,0.38-0.599c0.269-0.062,0.539,0.109,0.599,0.38l2.366,10.535
		c0.04,0.178-0.02,0.365-0.157,0.486c-0.137,0.122-0.33,0.158-0.502,0.096l-5.034-1.818l-5.034,1.818
		C23.454,35.649,23.397,35.659,23.34,35.659z"/>
	<path d="M28.544,33.78c-0.277,0-0.502-0.225-0.502-0.502v-4.816c0-0.277,0.225-0.502,0.502-0.502c0.277,0,0.501,0.225,0.501,0.502
		v4.816C29.046,33.555,28.821,33.78,28.544,33.78z"/>
	<path d="M28.544,23.243c-1.742,0-3.16-1.418-3.16-3.16c0-1.742,1.418-3.16,3.16-3.16c1.742,0,3.16,1.417,3.16,3.16
		C31.704,21.825,30.287,23.243,28.544,23.243z M28.544,17.926c-1.189,0-2.157,0.968-2.157,2.157c0,1.189,0.968,2.157,2.157,2.157
		c1.189,0,2.157-0.968,2.157-2.157C30.701,18.893,29.734,17.926,28.544,17.926z"/>
</g>















</svg>
