<?xml version="1.0" encoding="utf-8"?>
<svg version="1.1" xmlns="http://www.w3.org/2000/svg" xmlns:xlink="http://www.w3.org/1999/xlink" viewBox="0 0 22.674 24.464">
<path d="M4.376,9.173c-0.205,0-0.37,0.166-0.37,0.37v0.806c0,0.205,0.166,0.37,0.37,0.37c0.205,0,0.371-0.166,0.371-0.37V9.544
	C4.746,9.339,4.58,9.173,4.376,9.173z"/>
<path d="M6.32,9.173c-0.205,0-0.37,0.166-0.37,0.37v0.806c0,0.205,0.166,0.37,0.37,0.37c0.205,0,0.371-0.166,0.371-0.37V9.544
	C6.691,9.339,6.525,9.173,6.32,9.173z"/>
<path d="M8.265,9.173c-0.205,0-0.371,0.166-0.371,0.37v0.806c0,0.205,0.166,0.37,0.371,0.37c0.205,0,0.37-0.166,0.37-0.37V9.544
	C8.635,9.339,8.469,9.173,8.265,9.173z"/>
<path d="M10.209,9.173c-0.205,0-0.37,0.166-0.37,0.37v0.806c0,0.205,0.166,0.37,0.37,0.37s0.37-0.166,0.37-0.37V9.544
	C10.579,9.339,10.413,9.173,10.209,9.173z"/>
<path d="M4.376,11.876c-0.205,0-0.37,0.166-0.37,0.37v0.806c0,0.205,0.166,0.37,0.37,0.37c0.205,0,0.371-0.166,0.371-0.37v-0.806
	C4.746,12.042,4.58,11.876,4.376,11.876z"/>
<path d="M6.32,11.876c-0.205,0-0.37,0.166-0.37,0.37v0.806c0,0.205,0.166,0.37,0.37,0.37c0.205,0,0.371-0.166,0.371-0.37v-0.806
	C6.691,12.042,6.525,11.876,6.32,11.876z"/>
<path d="M8.265,11.876c-0.205,0-0.371,0.166-0.371,0.37v0.806c0,0.205,0.166,0.37,0.371,0.37c0.205,0,0.37-0.166,0.37-0.37v-0.806
	C8.635,12.042,8.469,11.876,8.265,11.876z"/>
<path d="M10.209,11.876c-0.205,0-0.37,0.166-0.37,0.37v0.806c0,0.205,0.166,0.37,0.37,0.37s0.37-0.166,0.37-0.37v-0.806
	C10.579,12.042,10.413,11.876,10.209,11.876z"/>
<path d="M4.376,14.579c-0.205,0-0.37,0.166-0.37,0.37v0.806c0,0.205,0.166,0.37,0.37,0.37c0.205,0,0.371-0.166,0.371-0.37V14.95
	C4.746,14.745,4.58,14.579,4.376,14.579z"/>
<path d="M6.32,14.579c-0.205,0-0.37,0.166-0.37,0.37v0.806c0,0.205,0.166,0.37,0.37,0.37c0.205,0,0.371-0.166,0.371-0.37V14.95
	C6.691,14.745,6.525,14.579,6.32,14.579z"/>
<path d="M8.265,14.579c-0.205,0-0.371,0.166-0.371,0.37v0.806c0,0.205,0.166,0.37,0.371,0.37c0.205,0,0.37-0.166,0.37-0.37V14.95
	C8.635,14.745,8.469,14.579,8.265,14.579z"/>
<path d="M10.209,14.579c-0.205,0-0.37,0.166-0.37,0.37v0.806c0,0.205,0.166,0.37,0.37,0.37s0.37-0.166,0.37-0.37V14.95
	C10.579,14.745,10.413,14.579,10.209,14.579z"/>
<path d="M4.376,17.282c-0.205,0-0.37,0.166-0.37,0.37v0.806c0,0.205,0.166,0.37,0.37,0.37c0.205,0,0.371-0.166,0.371-0.37v-0.806
	C4.746,17.448,4.58,17.282,4.376,17.282z"/>
<path d="M6.32,17.282c-0.205,0-0.37,0.166-0.37,0.37v0.806c0,0.205,0.166,0.37,0.37,0.37c0.205,0,0.371-0.166,0.371-0.37v-0.806
	C6.691,17.448,6.525,17.282,6.32,17.282z"/>
<path d="M8.265,17.282c-0.205,0-0.371,0.166-0.371,0.37v0.806c0,0.205,0.166,0.37,0.371,0.37c0.205,0,0.37-0.166,0.37-0.37v-0.806
	C8.635,17.448,8.469,17.282,8.265,17.282z"/>
<path d="M10.209,17.282c-0.205,0-0.37,0.166-0.37,0.37v0.806c0,0.205,0.166,0.37,0.37,0.37s0.37-0.166,0.37-0.37v-0.806
	C10.579,17.448,10.413,17.282,10.209,17.282z"/>
<path d="M4.376,19.986c-0.205,0-0.37,0.166-0.37,0.37v0.807c0,0.204,0.166,0.37,0.37,0.37c0.205,0,0.371-0.166,0.371-0.37v-0.807
	C4.746,20.151,4.58,19.986,4.376,19.986z"/>
<path d="M6.32,19.986c-0.205,0-0.37,0.166-0.37,0.37v0.807c0,0.204,0.166,0.37,0.37,0.37c0.205,0,0.371-0.166,0.371-0.37v-0.807
	C6.691,20.151,6.525,19.986,6.32,19.986z"/>
<path d="M8.265,19.986c-0.205,0-0.371,0.166-0.371,0.37v0.807c0,0.204,0.166,0.37,0.371,0.37c0.205,0,0.37-0.166,0.37-0.37v-0.807
	C8.635,20.151,8.469,19.986,8.265,19.986z"/>
<path d="M10.209,19.986c-0.205,0-0.37,0.166-0.37,0.37v0.807c0,0.204,0.166,0.37,0.37,0.37s0.37-0.166,0.37-0.37v-0.807
	C10.579,20.151,10.413,19.986,10.209,19.986z"/>
<path d="M1.681,22.412c-0.205,0-0.371,0.166-0.371,0.37s0.166,0.37,0.371,0.37h0.853h9.516h5.511h3.432
	c0.205,0,0.37-0.166,0.37-0.37s-0.166-0.37-0.37-0.37h-2.649c0.947-1.214,2.898-4.04,3.019-6.867c0-2.096-1.705-3.802-3.802-3.802
	c-2.096,0-3.801,1.706-3.801,3.818c0.12,2.815,2.072,5.638,3.019,6.851h-4.357V8.294h0.42c0.205,0,0.37-0.166,0.37-0.37V6.218
	c0-0.205-0.166-0.37-0.37-0.37H7.99V4.224h11.381v6.531c0,0.205,0.166,0.37,0.37,0.37s0.37-0.166,0.37-0.37V4.224h0.637
	c0.205,0,0.37-0.166,0.37-0.37V1.681c0-0.205-0.166-0.371-0.37-0.371H6.613c-0.205,0-0.37,0.166-0.37,0.371v2.172
	c0,0.205,0.166,0.37,0.37,0.37h0.636v1.623H1.744c-0.205,0-0.37,0.166-0.37,0.37v1.705c0,0.205,0.166,0.37,0.37,0.37h0.42v14.118
	H1.681z M14.501,15.545c0-1.688,1.373-3.061,3.06-3.061c1.688,0,3.061,1.373,3.061,3.045c-0.104,2.417-1.75,4.941-2.691,6.196
	v-2.188c0-0.205-0.166-0.37-0.37-0.37s-0.37,0.166-0.37,0.37v2.188C16.25,20.471,14.604,17.951,14.501,15.545z M6.983,3.483V2.052
	h13.396v1.431h-0.636H7.62H6.983z M2.114,7.553V6.588H12.47v0.964h-0.42H2.534H2.114z M2.905,8.294h8.775v14.118H2.905V8.294z"/>
<path d="M15.29,5.918c0-0.205-0.166-0.37-0.371-0.37c-0.205,0-0.37,0.166-0.37,0.37v1.027c0,0.205,0.166,0.37,0.37,0.37
	c0.205,0,0.371-0.166,0.371-0.37V5.918z"/>
<path d="M17.767,5.918c0-0.205-0.166-0.37-0.37-0.37c-0.205,0-0.37,0.166-0.37,0.37v1.027c0,0.205,0.166,0.37,0.37,0.37
	c0.205,0,0.37-0.166,0.37-0.37V5.918z"/>
<path d="M14.919,8.99c-0.205,0-0.37,0.166-0.37,0.37v1.027c0,0.205,0.166,0.371,0.37,0.371c0.205,0,0.371-0.166,0.371-0.371V9.361
	C15.29,9.157,15.124,8.99,14.919,8.99z"/>
<path d="M17.396,8.99c-0.205,0-0.37,0.166-0.37,0.37v1.027c0,0.205,0.166,0.371,0.37,0.371c0.205,0,0.37-0.166,0.37-0.371V9.361
	C17.767,9.157,17.601,8.99,17.396,8.99z"/>















</svg>
