<?xml version="1.0" encoding="utf-8"?>
<svg fill="#008BBC" version="1.1" xmlns="http://www.w3.org/2000/svg" xmlns:xlink="http://www.w3.org/1999/xlink" viewBox="0 0 24.117 24.78">
<path d="M19.921,1.955c-0.405-0.405-0.944-0.628-1.518-0.628H6.167c-0.573,0-1.112,0.223-1.52,0.629
	C4.244,2.363,4.022,2.901,4.022,3.473v5.905h-2.28c-0.229,0-0.414,0.186-0.414,0.414v8.876c0,0.229,0.186,0.414,0.414,0.414h4.574
	v3.956c0,0.229,0.186,0.414,0.414,0.414h11.381c0.229,0,0.414-0.186,0.414-0.414v-3.956h3.851c0.229,0,0.414-0.186,0.414-0.414
	V9.792c0-0.229-0.186-0.414-0.414-0.414h-1.824V3.473C20.551,2.901,20.327,2.362,19.921,1.955z M17.697,19.082v3.542H7.144v-3.542
	v-0.828v-1.189h10.553v1.189V19.082z M21.961,10.206v8.048h-3.437v-1.604c0-0.229-0.186-0.414-0.414-0.414H6.73
	c-0.229,0-0.414,0.186-0.414,0.414v1.604h-4.16v-8.048h2.28H6.73h11.381h2.026H21.961z M17.111,6.242h-1.476V4.766L17.111,6.242z
	 M15.221,7.07h2.476v2.309H7.144V4.179h7.663v2.477C14.807,6.884,14.993,7.07,15.221,7.07z M18.525,9.378V6.656
	c0-0.018-0.008-0.035-0.01-0.053c-0.002-0.018-0.006-0.035-0.01-0.052c-0.019-0.069-0.048-0.135-0.1-0.188l-2.89-2.891
	c-0.052-0.052-0.119-0.082-0.188-0.1c-0.018-0.005-0.036-0.008-0.055-0.011c-0.017-0.002-0.033-0.01-0.05-0.01H6.73
	c-0.229,0-0.414,0.186-0.414,0.414v5.613H4.85V3.473c0-0.352,0.138-0.683,0.385-0.931c0.249-0.249,0.58-0.387,0.933-0.387h12.236
	c0.353,0,0.683,0.138,0.932,0.386c0.25,0.25,0.388,0.581,0.388,0.932v5.905H18.525z"/>
<path d="M16.17,18.254H8.765c-0.229,0-0.414,0.186-0.414,0.414s0.186,0.414,0.414,0.414h7.405c0.229,0,0.414-0.186,0.414-0.414
	S16.399,18.254,16.17,18.254z"/>
<path d="M16.17,20.46H8.765c-0.229,0-0.414,0.186-0.414,0.414s0.186,0.414,0.414,0.414h7.405c0.229,0,0.414-0.186,0.414-0.414
	S16.399,20.46,16.17,20.46z"/>
<path d="M9.2,11.181H7.576c-0.229,0-0.414,0.186-0.414,0.414s0.186,0.414,0.414,0.414H9.2c0.229,0,0.414-0.186,0.414-0.414
	S9.428,11.181,9.2,11.181z"/>
<path d="M12.87,11.181h-1.625c-0.229,0-0.414,0.186-0.414,0.414s0.186,0.414,0.414,0.414h1.625c0.229,0,0.414-0.186,0.414-0.414
	S13.099,11.181,12.87,11.181z"/>
<path d="M16.541,11.181h-1.623c-0.229,0-0.414,0.186-0.414,0.414s0.186,0.414,0.414,0.414h1.623c0.229,0,0.414-0.186,0.414-0.414
	S16.77,11.181,16.541,11.181z"/>
<path d="M9.2,12.988H7.576c-0.229,0-0.414,0.186-0.414,0.414s0.186,0.414,0.414,0.414H9.2c0.229,0,0.414-0.186,0.414-0.414
	S9.428,12.988,9.2,12.988z"/>
<path d="M12.87,12.988h-1.625c-0.229,0-0.414,0.186-0.414,0.414s0.186,0.414,0.414,0.414h1.625c0.229,0,0.414-0.186,0.414-0.414
	S13.099,12.988,12.87,12.988z"/>
<path d="M16.541,12.988h-1.623c-0.229,0-0.414,0.186-0.414,0.414s0.186,0.414,0.414,0.414h1.623c0.229,0,0.414-0.186,0.414-0.414
	S16.77,12.988,16.541,12.988z"/>
<path d="M9.2,14.793H7.576c-0.229,0-0.414,0.186-0.414,0.414s0.186,0.414,0.414,0.414H9.2c0.229,0,0.414-0.186,0.414-0.414
	S9.428,14.793,9.2,14.793z"/>
<path d="M12.87,14.793h-1.625c-0.229,0-0.414,0.186-0.414,0.414s0.186,0.414,0.414,0.414h1.625c0.229,0,0.414-0.186,0.414-0.414
	S13.099,14.793,12.87,14.793z"/>
<path d="M16.541,14.793h-1.623c-0.229,0-0.414,0.186-0.414,0.414s0.186,0.414,0.414,0.414h1.623c0.229,0,0.414-0.186,0.414-0.414
	S16.77,14.793,16.541,14.793z"/>















</svg>
