<?xml version="1.0" encoding="utf-8"?>
<svg fill="#008BBC" version="1.1" xmlns="http://www.w3.org/2000/svg" xmlns:xlink="http://www.w3.org/1999/xlink" viewBox="0 0 23.725 24.56">
<path d="M1.321,20.878c0,0.632,0.247,1.226,0.693,1.67c0.447,0.449,1.042,0.696,1.675,0.696h12.509c0.632,0,1.227-0.247,1.671-0.694
	c0.448-0.444,0.695-1.039,0.695-1.672v-3.04v-0.762h1.479c0.631,0,1.226-0.247,1.671-0.693c0.442-0.437,0.696-1.047,0.696-1.673
	v-3.039V6.683V5.35c0-0.19-0.112-0.362-0.286-0.438L13.99,1.356c-0.123-0.054-0.261-0.053-0.382,0l-8.16,3.557
	C5.273,4.988,5.16,5.16,5.16,5.35v4.179l-3.558,1.55c-0.175,0.076-0.287,0.248-0.287,0.438v6.322c0,0.009,0.004,0.017,0.005,0.027
	V20.878z M20.042,16.122h-1.479v-2.586l2.008,2.481C20.405,16.085,20.227,16.122,20.042,16.122z M17.609,17.077v0.347v0.482v0.483
	v2.489c0,0.235-0.075,0.451-0.183,0.652l-2.261-2.794l-0.35-0.433l-0.35-0.433l-0.642-0.794l-0.295-0.365l0.157-0.112l0.665-0.478
	l3.26-2.34v2.34V16.6V17.077z M16.198,22.289H3.689c-0.167,0-0.326-0.039-0.479-0.095L5.876,18.9l0.35-0.433l0.35-0.433l0.649-0.802
	l1.447,1.099l0.781,0.593l0.202,0.154c0.168,0.127,0.397,0.129,0.567,0.008l0.223-0.16l0.838-0.601l1.468-1.054l0.613,0.758
	l0.35,0.433l0.35,0.433l2.663,3.291C16.561,22.252,16.382,22.289,16.198,22.289z M17.968,8.94l-1.734,1.245l-6.088-2.662
	c-0.123-0.054-0.261-0.053-0.382,0L9.426,7.671V7.356c0-0.264,0.13-0.519,0.362-0.718c0.258-0.217,0.603-0.337,0.971-0.337h5.878
	c0.364,0,0.719,0.123,0.97,0.334c0.232,0.2,0.361,0.456,0.361,0.72V8.94z M7.63,8.453L6.12,9.111V8.456
	c0-0.247,0.015-0.712,0.033-1.125L7.63,8.453z M5.944,12.806c0.051-0.043,0.119-0.064,0.177-0.1
	c0.231-0.142,0.498-0.237,0.794-0.237h0.942h0.849h0.614h0.614h1.331h1.53c0.056,0,0.107,0.021,0.162,0.027
	c0.304,0.031,0.595,0.128,0.806,0.308c0.007,0.006,0.01,0.015,0.017,0.021c0.049,0.044,0.078,0.097,0.117,0.145
	c0.077,0.096,0.134,0.195,0.168,0.302c0.027,0.083,0.061,0.164,0.061,0.25v1.584l-1.414,1.015L12.045,16.6l-0.665,0.478
	l-1.429,1.026l-1.351-1.026L7.972,16.6l-0.696-0.529L7.117,15.95l-0.38-0.289l-0.38-0.289l-0.093-0.07L5.655,14.84l-0.073-0.055
	v-1.262c0-0.085,0.034-0.166,0.06-0.247C5.697,13.104,5.786,12.94,5.944,12.806z M2.276,17.907v-0.483v-2.801
	c0-0.247,0.015-0.712,0.033-1.125l3.209,2.437l0.438,0.332l0.355,0.27l0.154,0.117l-0.088,0.109l-0.902,1.114l-0.35,0.433
	l-0.35,0.433l-2.287,2.827c-0.123-0.212-0.211-0.441-0.211-0.693V18.39V17.907z M21.454,12.223v2.488
	c0,0.236-0.075,0.452-0.183,0.653L19.01,12.57l-0.35-0.433l-0.096-0.119v-0.35v-0.152c0-0.19-0.112-0.362-0.286-0.438l-0.734-0.321
	l-0.173-0.213l4.083-2.931v3.644v0.482V12.223z M21.454,6.438L19.37,7.934l-0.447,0.321V7.356c0-0.548-0.247-1.062-0.698-1.448
	c-0.429-0.362-0.993-0.562-1.588-0.562h-5.878c-0.594,0-1.157,0.199-1.588,0.563c-0.452,0.385-0.7,0.898-0.7,1.447v0.535L7.6,7.231
	L6.116,6.103v-0.44l7.683-3.349l7.656,3.348V6.438z M5.638,10.363l0.005-0.002l0.473-0.206l0.005-0.002l2.382-1.037l0.413-0.18
	L8.949,8.92l0.055-0.024l0.422-0.184l0.08-0.035l0.448-0.195l5.377,2.351l0.509,0.223l0.007,0.003l0.502,0.219l0.599,0.262
	l0.617,0.27l0.043,0.019v0.458v0.069v0.249l-0.285,0.204l-1.799,1.291l-0.446,0.32v-0.898c0-0.132-0.016-0.261-0.044-0.388
	c-0.035-0.159-0.097-0.311-0.175-0.458c-0.042-0.078-0.089-0.154-0.142-0.228c-0.053-0.073-0.116-0.141-0.18-0.209
	c-0.041-0.043-0.078-0.088-0.123-0.128c-0.007-0.006-0.012-0.013-0.019-0.019c-0.006-0.005-0.009-0.011-0.015-0.016
	c-0.124-0.106-0.262-0.193-0.407-0.27c-0.203-0.108-0.423-0.186-0.654-0.234c-0.171-0.035-0.346-0.059-0.527-0.059h-0.338h-0.003
	h-0.79h-0.956h-0.614H9.478H7.926H6.914c-0.275,0-0.542,0.047-0.794,0.129c-0.063,0.021-0.123,0.046-0.184,0.071
	c-0.101,0.042-0.201,0.086-0.294,0.141c-0.099,0.058-0.193,0.125-0.282,0.197c-0.011,0.009-0.025,0.016-0.036,0.025
	c-0.06,0.051-0.107,0.11-0.159,0.166c-0.342,0.362-0.538,0.805-0.538,1.279v0.536l-0.871-0.661L2.271,12.27v-0.44l2.89-1.259
	l0.005-0.002L5.638,10.363z"/>















</svg>
