<?xml version="1.0" encoding="utf-8"?>
<svg version="1.1" xmlns="http://www.w3.org/2000/svg" xmlns:xlink="http://www.w3.org/1999/xlink" viewBox="0 0 39.483 37.997">
<g>
	<path d="M17.121,22.024c-0.323,0-0.584-0.261-0.584-0.584v-4.716c0-0.323,0.262-0.584,0.584-0.584c0.322,0,0.584,0.261,0.584,0.584
		v4.716C17.704,21.763,17.443,22.024,17.121,22.024z"/>
	<path d="M22.362,22.024c-0.323,0-0.584-0.261-0.584-0.584v-4.716c0-0.323,0.262-0.584,0.584-0.584c0.322,0,0.584,0.261,0.584,0.584
		v4.716C22.945,21.763,22.684,22.024,22.362,22.024z"/>
	<path d="M19.667,12.409c-0.586,0-1.431-0.269-2.081-1.496c-0.334-0.631-0.511-1.376-0.511-2.153V8.689
		c0-0.671,0.361-1.287,0.942-1.608c0.382-0.211,0.989-0.462,1.714-0.462c0.6,0,1.237,0.207,1.84,0.598
		c0.523,0.338,0.835,0.915,0.835,1.543c0,0.784-0.18,1.534-0.518,2.169c-0.671,1.255-1.557,1.505-2.164,1.479
		C19.706,12.409,19.687,12.409,19.667,12.409z M19.732,7.786c-0.476,0-0.888,0.172-1.149,0.316c-0.209,0.116-0.339,0.34-0.339,0.586
		v0.071c0,0.588,0.13,1.144,0.375,1.608c0.313,0.591,0.681,0.872,1.105,0.874c0.464,0,0.823-0.279,1.134-0.862
		c0.249-0.467,0.38-1.027,0.38-1.62c0-0.23-0.113-0.441-0.301-0.563C20.648,8.009,20.205,7.786,19.732,7.786z"/>
	<path d="M19.741,22.482c-1.785,0-3.55-0.477-5.105-1.38c-0.18-0.104-0.29-0.297-0.29-0.505v-4.452c0-1.53,1.245-2.775,2.775-2.775
		h5.241c1.53,0,2.774,1.244,2.774,2.774v4.453c0,0.208-0.111,0.401-0.291,0.505C23.292,22.005,21.526,22.482,19.741,22.482z
		 M15.514,20.254c2.608,1.39,5.848,1.39,8.455,0v-4.111c0-0.886-0.721-1.606-1.607-1.606h-5.241c-0.887,0-1.607,0.721-1.607,1.608
		V20.254z"/>
	<path d="M19.741,22.482c-5.615,0-10.183-4.568-10.183-10.183c0-5.615,4.568-10.184,10.183-10.184c4.061,0,7.73,2.408,9.347,6.135
		c0.129,0.295-0.007,0.639-0.303,0.767c-0.295,0.129-0.64-0.007-0.768-0.303c-1.431-3.299-4.68-5.432-8.276-5.432
		c-4.971,0-9.016,4.045-9.016,9.016s4.044,9.016,9.016,9.016c4.396,0,8.132-3.138,8.883-7.461c0.055-0.318,0.359-0.53,0.675-0.475
		c0.318,0.055,0.53,0.357,0.475,0.675C28.926,18.938,24.706,22.482,19.741,22.482z"/>
	<path d="M31.005,29.353c-0.024,0-0.044,0-0.068,0c-0.298,0-0.868-0.125-1.276-0.896c-0.187-0.354-0.286-0.769-0.286-1.201
		c0-0.473,0.237-0.877,0.617-1.087c0.219-0.121,0.568-0.265,0.989-0.265c0.352,0,0.722,0.119,1.068,0.343
		c0.343,0.222,0.547,0.599,0.547,1.009c0,0.435-0.1,0.854-0.29,1.21C31.898,29.23,31.33,29.353,31.005,29.353z M30.969,28.185
		c0.146,0,0.253-0.169,0.307-0.269c0.1-0.188,0.153-0.415,0.153-0.66l0.304-0.519l-0.317,0.49c-0.11-0.071-0.274-0.155-0.434-0.155
		c-0.181,0-0.343,0.075-0.424,0.119l-0.014,0.065c0,0.243,0.052,0.469,0.151,0.655c0.043,0.083,0.157,0.274,0.273,0.274
		C30.967,28.185,30.968,28.185,30.969,28.185z"/>
	<path d="M30.985,35.882c-1.119,0-2.226-0.299-3.2-0.865c-0.18-0.105-0.29-0.297-0.29-0.505v-2.69c0-1.051,0.856-1.907,1.907-1.907
		h3.166c1.051,0,1.907,0.855,1.907,1.906v2.69c0,0.208-0.111,0.4-0.29,0.505C33.211,35.583,32.104,35.882,30.985,35.882z
		 M28.663,34.164c1.444,0.723,3.201,0.723,4.644,0v-2.342c0-0.407-0.331-0.738-0.739-0.738h-3.166c-0.408,0-0.74,0.331-0.74,0.739
		V34.164z"/>
	<path d="M30.985,35.882c-3.519,0-6.382-2.863-6.382-6.382c0-3.518,2.863-6.382,6.382-6.382c3.518,0,6.382,2.863,6.382,6.382
		C37.367,33.019,34.504,35.882,30.985,35.882z M30.985,24.286c-2.875,0-5.214,2.339-5.214,5.214s2.339,5.214,5.214,5.214
		S36.2,32.376,36.2,29.5S33.861,24.286,30.985,24.286z"/>
	<path d="M30.985,24.286c-0.323,0-0.584-0.262-0.584-0.584v-3.496l-2.346-3.783c-0.169-0.274-0.085-0.634,0.189-0.804
		c0.275-0.17,0.634-0.085,0.804,0.188l2.433,3.925c0.057,0.092,0.088,0.199,0.088,0.308v3.662
		C31.569,24.025,31.307,24.286,30.985,24.286z"/>
	<path d="M8.449,29.353c-0.296,0-0.864-0.123-1.271-0.887c-0.19-0.356-0.29-0.775-0.29-1.21c0-0.41,0.204-0.787,0.547-1.009
		c0.346-0.224,0.716-0.343,1.068-0.343c0.421,0,0.77,0.144,0.989,0.265c0.38,0.21,0.617,0.614,0.617,1.052
		c0,0.467-0.099,0.882-0.285,1.235c-0.424,0.801-1.017,0.897-1.342,0.896C8.47,29.352,8.46,29.353,8.449,29.353z M8.067,27.227
		c-0.013,0.273,0.04,0.501,0.14,0.689c0.044,0.081,0.167,0.256,0.274,0.269c0.152,0,0.266-0.191,0.309-0.274
		c0.098-0.186,0.15-0.412,0.15-0.655l0.267-0.576l-0.283,0.511c-0.081-0.045-0.243-0.119-0.424-0.119
		C8.342,27.072,8.177,27.156,8.067,27.227z"/>
	<path d="M8.497,35.882c-1.119,0-2.226-0.299-3.199-0.865c-0.18-0.105-0.291-0.297-0.291-0.505v-2.69
		c0-1.051,0.856-1.906,1.907-1.906h3.166c1.051,0,1.907,0.856,1.907,1.907v2.69c0,0.208-0.111,0.4-0.29,0.505
		C10.722,35.583,9.616,35.882,8.497,35.882z M6.175,34.164c1.444,0.723,3.2,0.723,4.644,0v-2.341c0-0.408-0.331-0.739-0.739-0.739
		H6.914c-0.408,0-0.74,0.331-0.74,0.738V34.164z"/>
	<path d="M8.497,35.882c-3.519,0-6.382-2.863-6.382-6.382c0-0.478,0.053-0.955,0.158-1.417c0.071-0.315,0.386-0.511,0.698-0.441
		c0.315,0.071,0.512,0.384,0.441,0.698C3.326,28.719,3.283,29.11,3.283,29.5c0,2.875,2.339,5.214,5.214,5.214
		s5.214-2.339,5.214-5.214s-2.339-5.214-5.214-5.214c-1.236,0-2.435,0.44-3.375,1.239c-0.247,0.21-0.614,0.18-0.823-0.066
		c-0.209-0.246-0.179-0.614,0.066-0.823c1.151-0.979,2.619-1.517,4.132-1.517c3.519,0,6.382,2.863,6.382,6.382
		C14.879,33.019,12.016,35.882,8.497,35.882z"/>
	<path d="M8.497,24.286c-0.323,0-0.584-0.262-0.584-0.584V20.04c0-0.108,0.031-0.215,0.088-0.308l2.433-3.925
		c0.17-0.273,0.529-0.357,0.805-0.188c0.273,0.17,0.358,0.53,0.188,0.804l-2.346,3.783v3.496
		C9.081,24.025,8.819,24.286,8.497,24.286z"/>
	<path d="M25.187,30.085H14.295c-0.323,0-0.584-0.262-0.584-0.584c0-0.322,0.262-0.584,0.584-0.584h10.892
		c0.323,0,0.584,0.262,0.584,0.584C25.771,29.823,25.51,30.085,25.187,30.085z"/>
</g>















</svg>
